<svg id="Calque_1" data-name="Calque 1" xmlns="http://www.w3.org/2000/svg" xmlns:xlink="http://www.w3.org/1999/xlink" viewBox="0 0 160 122.69"><defs><style>.cls-1{fill:url(#Dégradé_sans_nom_102);}.cls-2{fill:url(#Dégradé_sans_nom_102-2);}.cls-3{fill:url(#linear-gradient);}.cls-4{fill:url(#Dégradé_sans_nom_25);}.cls-5{fill:url(#Dégradé_sans_nom_23);}.cls-6{fill:url(#Dégradé_sans_nom_25-2);}.cls-7{fill:url(#Dégradé_sans_nom_102-3);}.cls-8{fill:#232323;}</style><linearGradient id="Dégradé_sans_nom_102" x1="391.14" y1="306.23" x2="460.53" y2="306.23" gradientUnits="userSpaceOnUse"><stop offset="0" stop-color="#b2e755"/><stop offset="1" stop-color="#2ebf9d"/></linearGradient><linearGradient id="Dégradé_sans_nom_102-2" x1="430.91" y1="316.96" x2="480.41" y2="316.96" xlink:href="#Dégradé_sans_nom_102"/><linearGradient id="linear-gradient" x1="356.06" y1="343.97" x2="383.56" y2="311.27" gradientUnits="userSpaceOnUse"><stop offset="0" stop-color="#b2e755"/><stop offset="1" stop-color="#26bda1"/></linearGradient><linearGradient id="Dégradé_sans_nom_25" x1="371.24" y1="317.99" x2="369.17" y2="331.91" gradientUnits="userSpaceOnUse"><stop offset="0" stop-color="#001f00"/><stop offset="0.14" stop-color="#001f00" stop-opacity="0.8"/><stop offset="0.64" stop-color="#001f00" stop-opacity="0.21"/><stop offset="1" stop-color="#001f00" stop-opacity="0"/></linearGradient><linearGradient id="Dégradé_sans_nom_23" x1="398.71" y1="285.48" x2="383.5" y2="262.56" gradientUnits="userSpaceOnUse"><stop offset="0" stop-color="#60ce82"/><stop offset="1" stop-color="#62cf80"/></linearGradient><linearGradient id="Dégradé_sans_nom_25-2" x1="401.03" y1="293.92" x2="393.92" y2="276.8" xlink:href="#Dégradé_sans_nom_25"/><linearGradient id="Dégradé_sans_nom_102-3" x1="320.41" y1="283.05" x2="439.08" y2="283.05" xlink:href="#Dégradé_sans_nom_102"/></defs><path class="cls-1" d="M391.14,337.25c5.86-6.36,25.22-26.2,30.72-32.16,8.89-9.65,17.81-19.27,26.66-29,1.14-1.26,1.75-1.53,3-.09,2.66,3.1,5.49,6.07,8.34,9,.92.94.87,1.5,0,2.44C449,299,424.34,324.65,413.55,336.22a2.76,2.76,0,0,1-2.1,1.16C404.93,337.37,398.42,337.25,391.14,337.25Z" transform="translate(-320.41 -239.21)"/><path class="cls-2" d="M430.91,337.36c4-4.36,21.49-22.28,25-26.14,4.19-4.55,8.44-9.06,12.56-13.69,1.21-1.36,1.89-1.29,3.05,0q3.88,4.44,8.05,8.62c1.11,1.11,1,1.73,0,2.81-4.17,4.35-22.17,22.84-26.27,27.26a2.76,2.76,0,0,1-2.12,1.12C444.69,337.35,438.18,337.36,430.91,337.36Z" transform="translate(-320.41 -239.21)"/><path class="cls-3" d="M391.16,317.67l-.84.85c-6.59,6.62-12.38,12.52-19,19.05l-.56,0c-.38,0-.9,0-1.39,0h-.17c-6.5-.3-13.52-.19-20.72,0,3.27-3.24,6.09-6.07,9.21-9.17l1.76-1.76,1.34.13c1.15.08,2.32.13,3.49.13a43.65,43.65,0,0,0,18-3.86h0a43.83,43.83,0,0,0,8.53-5.09Z" transform="translate(-320.41 -239.21)"/><path class="cls-4" d="M391.16,317.67a7.51,7.51,0,0,0-.84.85c-6.59,6.62-12.38,12.52-19,19.05-.38,0-1.37,0-2,0h-.17c-6.5-.3-13.52-.19-20.72,0,3.27-3.24,6.09-6.07,9.21-9.17l1.76-1.76,1.34.13c1.15.08,2.32.13,3.49.13a43.65,43.65,0,0,0,18-3.86h0a43.83,43.83,0,0,0,8.53-5.09Z" transform="translate(-320.41 -239.21)"/><path class="cls-5" d="M408,279.6h0l-.7.77c-4.61,5-9.38,9.93-14.47,14.53l-.07.07-.12.11c-1.52,1.37-3.07,2.71-4.65,4a25.73,25.73,0,0,0-.43-32.28c1.17,1.23,1.83,1.34,3,0,2.4-2.8,4.89-5.53,7.51-8.13.84-.83,1.2-1.51,1.06-2.23A43.57,43.57,0,0,1,408,279.6Z" transform="translate(-320.41 -239.21)"/><path class="cls-6" d="M408,279.6h0l-.7.77c-4.61,5-9.38,9.93-14.47,14.53l-.07.07-.12.11c-1.52,1.37-3.07,2.71-4.65,4a25.73,25.73,0,0,0-.43-32.28c1.17,1.23,1.83,1.34,3,0,2.4-2.8,4.89-5.53,7.51-8.13.84-.83,1.2-1.51,1.06-2.23A43.57,43.57,0,0,1,408,279.6Z" transform="translate(-320.41 -239.21)"/><path class="cls-7" d="M438.46,268.33l-.42-.48c-2.57-2.9-5.12-5.83-7.52-8.88-1.18-1.5-1.8-1.25-3-.05-6.59,6.6-19.4,20.51-19.56,20.68h0l-.42.47-.28.3c-.71.78-1.43,1.56-2.15,2.33l-5,4.94c-1.89,1.89-3.75,3.73-5.6,5.57a7.39,7.39,0,0,0-.62.57l-1.12,1.12,0,0,0,0-.12.11c-1.52,1.37-3.07,2.71-4.65,4a29.81,29.81,0,0,1-23.6,11.33h-.1a29.48,29.48,0,0,1-25.88-14.63s0,0,0,0a25.58,25.58,0,0,1-3.29-12.55c0-13.72,10.9-25.06,25.05-26.93l.56-.07a30.15,30.15,0,0,1,3.57-.2H365c.92,0,1.83.09,2.73.19a29.67,29.67,0,0,1,19.78,10.6c1.17,1.23,1.83,1.34,3,0,2.4-2.8,4.89-5.53,7.51-8.13.84-.83,1.2-1.51,1.06-2.23a43.85,43.85,0,1,0-66.57,56.89l.08.08a43.73,43.73,0,0,0,26.83,13.25l1.34.13c1.15.08,2.32.13,3.49.13a43.65,43.65,0,0,0,18-3.86h0a43.83,43.83,0,0,0,8.53-5.09l.34-.27a43.84,43.84,0,0,0,7.7-7.7l4.67-4.6a5.51,5.51,0,0,0,.93-.77c4.24-4.16,8.47-8.4,12.7-12.66l.06-.06c7-7.09,14.08-14.23,21.13-21.12C439.27,269.87,439.33,269.31,438.46,268.33Z" transform="translate(-320.41 -239.21)"/><path class="cls-8" d="M334.46,360.46a4.91,4.91,0,0,1-3.61,1.31H326V347.35h4.84a4.91,4.91,0,0,1,3.61,1.32c1.46,1.46,1.4,3.75,1.4,5.69S335.92,359,334.46,360.46Zm-.77-11a4.06,4.06,0,0,0-3.1-1.11h-3.48V360.8h3.48a4.06,4.06,0,0,0,3.1-1.11c1.13-1.2,1.07-3.71,1.07-5.33S334.82,350.63,333.69,349.44Z" transform="translate(-320.41 -239.21)"/><path class="cls-8" d="M339.75,347.35h1.09v14.42h-1.09Z" transform="translate(-320.41 -239.21)"/><path class="cls-8" d="M353.46,360.24a5.15,5.15,0,0,1-7.4.18c-1.31-1.32-1.33-2.62-1.33-5.86s0-4.53,1.33-5.85a5.08,5.08,0,0,1,3.61-1.48,4.88,4.88,0,0,1,4.92,4.22H353.5a3.9,3.9,0,0,0-6.57-2.13c-1,1-1.11,2.17-1.11,5.24s.08,4.22,1.11,5.25a3.84,3.84,0,0,0,2.74,1.11,3.88,3.88,0,0,0,3-1.39,4.23,4.23,0,0,0,.87-2.86v-1.3h-3.87v-1h5v2.35A4.62,4.62,0,0,1,353.46,360.24Z" transform="translate(-320.41 -239.21)"/><path class="cls-8" d="M358.48,347.35h1.09v14.42h-1.09Z" transform="translate(-320.41 -239.21)"/><path class="cls-8" d="M367.79,361.77H366.7V348.33h-4.29v-1h9.7v1h-4.32Z" transform="translate(-320.41 -239.21)"/><path class="cls-8" d="M381,358.27h-6.72l-1.26,3.5h-1.17l5.3-14.42h1l5.31,14.42h-1.17Zm-6.38-1h6l-3-8.49Z" transform="translate(-320.41 -239.21)"/><path class="cls-8" d="M385.92,347.35H387V360.8h7.65v1h-8.75Z" transform="translate(-320.41 -239.21)"/><path class="cls-8" d="M411.91,361.77v-8.4l-2.76,5.47h-1.9l-2.78-5.47v8.4h-2.81V347.35h2.77l3.77,7.8,3.75-7.8h2.77v14.42Z" transform="translate(-320.41 -239.21)"/><path class="cls-8" d="M418.08,361.77V347.35h2.82v14.42Z" transform="translate(-320.41 -239.21)"/><path class="cls-8" d="M431.47,361.77l-2.79-5-2.78,5h-3.22l4.48-7.39-4.2-7h3.2l2.52,4.66,2.53-4.66h3.18l-4.2,7,4.5,7.39Z" transform="translate(-320.41 -239.21)"/><path class="cls-8" d="M449.37,361.77l-.85-2.55H443.4l-.87,2.55h-2.94l5.25-14.42H447l5.27,14.42ZM446,351.61l-1.82,5.24h3.58Z" transform="translate(-320.41 -239.21)"/><path class="cls-8" d="M461.75,361.77,458.93,356h-2v5.75h-2.82V347.35h5.65a4.36,4.36,0,0,1,4.68,4.42,3.89,3.89,0,0,1-2.63,3.79l3.22,6.21Zm-2.19-11.9h-2.65v3.8h2.65a1.91,1.91,0,1,0,0-3.8Z" transform="translate(-320.41 -239.21)"/><path class="cls-8" d="M472.85,349.87v11.9H470v-11.9h-3.77v-2.52h10.35v2.52Z" transform="translate(-320.41 -239.21)"/></svg>