<svg id="Calque_1" data-name="Calque 1" xmlns="http://www.w3.org/2000/svg" viewBox="0 0 120.77 41.69"><defs><style>.cls-1{fill:#707070;}</style></defs><g id="dz-name"><path id="Tracé_2" data-name="Tracé 2" class="cls-1" d="M12.32,10a6.41,6.41,0,0,1-1.53,2.21,7.07,7.07,0,0,1-2.34,1.47,8.12,8.12,0,0,1-3,.54H0V.24H5.45a8.32,8.32,0,0,1,3,.53,6.94,6.94,0,0,1,2.34,1.46,6.46,6.46,0,0,1,1.53,2.2,7,7,0,0,1,.53,2.74v0A7,7,0,0,1,12.32,10ZM9.65,7.21a4.49,4.49,0,0,0-.31-1.7,4,4,0,0,0-.85-1.33,3.76,3.76,0,0,0-1.33-.86A4.51,4.51,0,0,0,5.45,3H3.09v8.4H5.45a4.7,4.7,0,0,0,1.71-.3A3.76,3.76,0,0,0,9.34,8.94a4.44,4.44,0,0,0,.31-1.69Z"/><path id="Tracé_3" data-name="Tracé 3" class="cls-1" d="M15.58,14.17V.24H26.06V3H18.6V5.79h6.57V8.52H18.6v2.92h7.56v2.73Z"/><path id="Tracé_4" data-name="Tracé 4" class="cls-1" d="M28.91,14.17V.24H32V11.4h7v2.77Z"/><path id="Tracé_5" data-name="Tracé 5" class="cls-1" d="M41.36,14.17V.24h3.07V14.17Z"/><path id="Tracé_6" data-name="Tracé 6" class="cls-1" d="M59,13a6.34,6.34,0,0,1-1.26.79,6.15,6.15,0,0,1-1.5.5,8.66,8.66,0,0,1-1.83.17,7.17,7.17,0,0,1-2.85-.56,6.84,6.84,0,0,1-3.76-3.8,7.26,7.26,0,0,1-.53-2.8v0a7.16,7.16,0,0,1,2-5.09A6.84,6.84,0,0,1,51.61.57a7.49,7.49,0,0,1,3-.57,9.66,9.66,0,0,1,1.78.16A7.44,7.44,0,0,1,57.8.6,6.87,6.87,0,0,1,59,1.27a9.57,9.57,0,0,1,1,.88L58.1,4.4a7.62,7.62,0,0,0-1.66-1.16,4.28,4.28,0,0,0-1.9-.41,3.86,3.86,0,0,0-2.9,1.27,4.34,4.34,0,0,0-.84,1.38,4.84,4.84,0,0,0-.3,1.68v0a4.85,4.85,0,0,0,.3,1.69,4.51,4.51,0,0,0,.83,1.4,3.86,3.86,0,0,0,2.92,1.29,4.25,4.25,0,0,0,2-.44A7.69,7.69,0,0,0,58.21,10l1.95,2A10,10,0,0,1,59,13Z"/><path id="Tracé_7" data-name="Tracé 7" class="cls-1" d="M62.59,14.17V.24H73.08V3H65.62V5.79h6.56V8.52H65.62v2.92h7.56v2.73Z"/><path id="Tracé_8" data-name="Tracé 8" class="cls-1" d="M85.61,11.89a3.63,3.63,0,0,1-1,1.35,4.73,4.73,0,0,1-1.6.84,6.91,6.91,0,0,1-2.07.29,9.24,9.24,0,0,1-3.12-.55A8.29,8.29,0,0,1,75,12.14L76.8,10a9.09,9.09,0,0,0,2,1.23,5.05,5.05,0,0,0,2.2.46,2.64,2.64,0,0,0,1.48-.35,1.08,1.08,0,0,0,.53-1v0a1.23,1.23,0,0,0-.11-.53,1.15,1.15,0,0,0-.42-.43,5.18,5.18,0,0,0-.86-.4,14,14,0,0,0-1.42-.41A18.43,18.43,0,0,1,78.24,8a5.38,5.38,0,0,1-1.45-.79A3.09,3.09,0,0,1,75.86,6a4,4,0,0,1-.33-1.73v0a4.08,4.08,0,0,1,.35-1.72,4,4,0,0,1,1-1.32A4.51,4.51,0,0,1,78.42.34a6,6,0,0,1,2-.3A8.16,8.16,0,0,1,83.2.5a8.28,8.28,0,0,1,2.36,1.31L84,4.12a10.17,10.17,0,0,0-1.83-1,4.63,4.63,0,0,0-1.79-.37A2.21,2.21,0,0,0,79,3.1a1.06,1.06,0,0,0-.45.86V4a1.31,1.31,0,0,0,.13.59,1.27,1.27,0,0,0,.47.45,4.66,4.66,0,0,0,.93.38c.39.12.89.26,1.49.42a13.79,13.79,0,0,1,1.88.62,5.37,5.37,0,0,1,1.4.84,3.22,3.22,0,0,1,.86,1.14A3.89,3.89,0,0,1,86,10v0A4.16,4.16,0,0,1,85.61,11.89Z"/><path id="Tracé_9" data-name="Tracé 9" class="cls-1" d="M106.92,10a6.52,6.52,0,0,1-1.52,2.21,7.11,7.11,0,0,1-2.35,1.47,8,8,0,0,1-3,.54H94.62V.24h5.43a8.32,8.32,0,0,1,3,.53,7.09,7.09,0,0,1,2.35,1.46,6.58,6.58,0,0,1,1.52,2.2,7,7,0,0,1,.53,2.74v0A7,7,0,0,1,106.92,10Zm-2.66-2.74a4.7,4.7,0,0,0-.31-1.7,4.17,4.17,0,0,0-.86-1.33,3.72,3.72,0,0,0-1.32-.86A4.58,4.58,0,0,0,100.06,3H97.69v8.4h2.37a4.78,4.78,0,0,0,1.71-.3,3.64,3.64,0,0,0,1.32-.86A4,4,0,0,0,104,8.94a4.64,4.64,0,0,0,.31-1.69Z"/><path id="Tracé_10" data-name="Tracé 10" class="cls-1" d="M110.18,14.17V.24h10.49V3h-7.46V5.79h6.56V8.52h-6.56v2.92h7.56v2.73Z"/><path id="Tracé_11" data-name="Tracé 11" class="cls-1" d="M0,41.3V37.48L12.57,22.86H.39V18.45H19v3.82L6.46,36.9H19v4.4Z"/><path id="Tracé_12" data-name="Tracé 12" class="cls-1" d="M38.09,41.3V32.13H28.82V41.3h-5V18.45h5v9h9.27v-9h5V41.3Z"/><path id="Tracé_13" data-name="Tracé 13" class="cls-1" d="M71,34.46a11.72,11.72,0,0,1-6.38,6.3,13.24,13.24,0,0,1-9.75,0A12.34,12.34,0,0,1,51,38.25a11.26,11.26,0,0,1-2.51-3.73,11.62,11.62,0,0,1-.9-4.58v-.07A11.67,11.67,0,0,1,54.88,19a13.22,13.22,0,0,1,9.74,0,12.1,12.1,0,0,1,3.84,2.51A11.32,11.32,0,0,1,71,25.22a11.63,11.63,0,0,1,.9,4.59v.06A11.64,11.64,0,0,1,71,34.46Zm-4.34-4.59a7.68,7.68,0,0,0-.51-2.77,6.95,6.95,0,0,0-9.2-3.85,6.31,6.31,0,0,0-2.16,1.53,7.19,7.19,0,0,0-1.4,2.27,7.42,7.42,0,0,0-.5,2.76v.06a7.56,7.56,0,0,0,.5,2.78A6.92,6.92,0,0,0,57,36.48a6.67,6.67,0,0,0,2.79.57,6.92,6.92,0,0,0,2.77-.55A6.32,6.32,0,0,0,64.71,35a7,7,0,0,0,1.4-2.27,7.58,7.58,0,0,0,.51-2.75Z"/><path id="Tracé_14" data-name="Tracé 14" class="cls-1" d="M95.2,35.88a8.72,8.72,0,0,1-2,3.22A8.27,8.27,0,0,1,90,41a12.7,12.7,0,0,1-4.14.64,10,10,0,0,1-7.25-2.55C76.87,37.42,76,34.88,76,31.51V18.45h5V31.38a6.11,6.11,0,0,0,1.31,4.23A4.72,4.72,0,0,0,85.94,37a4.8,4.8,0,0,0,3.63-1.37,5.75,5.75,0,0,0,1.3-4.12V18.45h5v12.9A13.41,13.41,0,0,1,95.2,35.88Z"/><path id="Tracé_15" data-name="Tracé 15" class="cls-1" d="M114.89,41.3,110,34H106V41.3h-5V18.45h10.44a9.33,9.33,0,0,1,6.35,2A7,7,0,0,1,120.08,26v.07a7.16,7.16,0,0,1-1.35,4.52,7.9,7.9,0,0,1-3.55,2.56l5.59,8.16Zm.1-15a2.9,2.9,0,0,0-1-2.44,4.62,4.62,0,0,0-2.9-.82h-5v6.56h5.1a4.13,4.13,0,0,0,2.85-.88,3,3,0,0,0,1-2.35Z"/></g></svg>