<svg id="Calque_1" data-name="Calque 1" xmlns="http://www.w3.org/2000/svg" viewBox="0 0 345 345"><defs><style>.cls-1{fill:#e71d73;}.cls-2{fill:none;stroke:#fff;stroke-miterlimit:10;stroke-width:4px;}.cls-3{fill:#fff;}.cls-4{fill:#1d1d1b;}</style></defs><g id="logo_min" data-name="logo min"><circle class="cls-1" cx="172.5" cy="172.5" r="169.37"/><circle class="cls-2" cx="172.4" cy="172.5" r="158.61"/><path class="cls-2" d="M281.21,89.49a137,137,0,0,1-32.31,196.8"/><path class="cls-2" d="M95.82,286.24A137,137,0,0,1,61.65,92.07"/><path class="cls-3" d="M335,172.56a162.66,162.66,0,0,0-5.23-41h-53.3a112.27,112.27,0,0,0-209.14,0H15.05a163.36,163.36,0,0,0,3.7,94.21H73.11a112.28,112.28,0,0,0,197.51,0H326A162,162,0,0,0,335,172.56Z"/><path class="cls-3" d="M114.81,287.66a8.36,8.36,0,0,0-3.72-4.28,6.09,6.09,0,0,0-3.94-.82,4.07,4.07,0,0,0-3,2l0,0a3.6,3.6,0,0,0-.3,3.33,9.37,9.37,0,0,0,2.75,3.4c2.74,2.45,2.57,3.33,2.06,4.22l0,0a2.07,2.07,0,0,1-1.59,1.05,4.13,4.13,0,0,1-2.59-.62,6.69,6.69,0,0,1-3.19-4.14l-.21-.7-2,.64.21.69a8.87,8.87,0,0,0,4.16,5.29,6.76,6.76,0,0,0,3.33,1,4.26,4.26,0,0,0,3.82-2.16l0,0a3.62,3.62,0,0,0,.32-3.28,9.33,9.33,0,0,0-2.75-3.44c-2.76-2.46-2.59-3.34-2.08-4.23l0,0a2,2,0,0,1,1.48-.95,3.9,3.9,0,0,1,2.47.55,6.46,6.46,0,0,1,2.8,3.3l.27.68,2-.81Z"/><rect class="cls-3" x="111.29" y="295.61" width="15.9" height="2.14" transform="translate(-200.3 285.17) rotate(-66.04)"/><polygon class="cls-3" points="136.5 307.12 130.95 292.91 130.16 292.67 130.04 292.38 129.97 292.61 129.32 292.41 124.61 307.6 126.64 308.23 130.2 296.74 135.8 311.07 136.59 311.31 136.66 311.48 136.7 311.35 137.35 311.55 142.06 296.36 140.04 295.73 136.5 307.12"/><path class="cls-3" d="M148.32,305.71a6.36,6.36,0,0,1,2.24-4,5.46,5.46,0,0,1,4.26-1.17,6.09,6.09,0,0,1,4.25,2.61l.44.57,1.72-1.34-.46-.57a8.11,8.11,0,0,0-5.63-3.33,8,8,0,0,0-9,7v0a8.36,8.36,0,0,0,1.36,6,7.62,7.62,0,0,0,5.21,3.18,8.1,8.1,0,0,0,1.29.1,8.51,8.51,0,0,0,5.23-1.87l.58-.44-1.31-1.68-.57.43a6.16,6.16,0,0,1-4.88,1.41,5.84,5.84,0,0,1-4.77-6.85Z"/><polygon class="cls-3" points="166.1 315.61 177.83 315.8 177.87 313.72 168.28 313.56 168.36 308.68 176.93 308.82 176.97 306.74 168.4 306.6 168.47 301.82 177.96 301.98 177.99 299.9 166.37 299.71 166.1 315.61"/><path class="cls-3" d="M197.87,311l3.19-4.65c1.94-2.83,2.46-4.38,2.08-6.18v0c-.54-2.49-3-3.93-5.82-3.33a6.2,6.2,0,0,0-4.78,4.56l-.21.66,2,.72.24-.7c.63-1.86,1.64-2.89,3.18-3.22a2.64,2.64,0,0,1,3.33,1.83c.2,1,0,2.1-1.69,4.54l-4.93,7.16.32,1.48,11-2.37-.44-2.05Z"/><path class="cls-3" d="M221.92,297.71a9.43,9.43,0,0,0-3.55-4.73,6.1,6.1,0,0,0-9.3,3.4,9.53,9.53,0,0,0,.31,5.89l0,0c1.31,3.6,4,5.77,7,5.77a6.1,6.1,0,0,0,5.86-4.45,9.39,9.39,0,0,0-.31-5.89Zm-4.15,8c-2.76,1-5.33-1.42-6.35-4.2v0c-1-2.84-.63-6.24,2.14-7.25a3.88,3.88,0,0,1,1.3-.23,4.22,4.22,0,0,1,2.38.79,7.58,7.58,0,0,1,2.66,3.65l0,0C220.94,301.34,220.54,304.74,217.77,305.75Z"/><polygon class="cls-3" points="225.93 286.81 223.19 290.01 224.71 291.35 226.43 289.41 232.46 301.44 234.35 300.49 227.18 286.18 225.93 286.81"/><polygon class="cls-3" points="234.89 281.81 232.42 285.23 234.06 286.44 235.6 284.36 242.63 295.83 244.44 294.73 236.08 281.08 234.89 281.81"/><path class="cls-3" d="M75.75,73c-1.92-2-4.64-1.84-7.09.49l-3.78,3.59,9.66,10.16L76,85.81,72.69,82.3l2.19-2.07A6.53,6.53,0,0,0,77,76.66,4.2,4.2,0,0,0,75.78,73ZM73.5,78.75l-2.19,2.09L67.74,77.1,70,75a4.33,4.33,0,0,1,2.4-1.3,2.19,2.19,0,0,1,1.89.74l0,0A2.22,2.22,0,0,1,75,76.38,4.48,4.48,0,0,1,73.5,78.75Z"/><path class="cls-3" d="M88.79,62.49l0,0a4.06,4.06,0,0,0-2.6-1.6h0A5.72,5.72,0,0,0,82,62.21L77.3,65.77,85.74,77l1.64-1.24-3.24-4.29,2.7-2,6.51,1.82,2.07-1.56-6.88-1.9A4.11,4.11,0,0,0,88.79,62.49Zm-5.85,7.35-2.79-3.71,3-2.3c1-.72,2.75-1.7,4-.1l0,0c.86,1.14.37,2.62-1.27,3.86Z"/><polygon class="cls-3" points="106.81 60.53 99.62 64.75 97.56 61.25 103.99 57.48 102.98 55.75 96.55 59.53 94.54 56.11 101.65 51.93 100.64 50.21 91.76 55.42 98.86 67.51 107.82 62.25 106.81 60.53"/><polygon class="cls-3" points="118.01 42.21 117.81 41.74 117.68 42.35 117.03 42.63 115.32 51.11 107.97 46.53 107.31 46.82 106.78 46.49 106.98 46.96 106.44 47.2 111.98 60.07 113.85 59.27 109.91 50.13 116.1 53.97 116.83 53.66 118.3 46.52 122.23 55.66 124.11 54.85 118.57 41.97 118.01 42.21"/><rect class="cls-3" x="127.33" y="39.13" width="2.05" height="14.02" transform="translate(-7.95 41.08) rotate(-17.65)"/><path class="cls-3" d="M146.75,42.32l-1.68-7.64-2,.44,1.69,7.69a4.69,4.69,0,0,1-.29,3.45,3.52,3.52,0,0,1-2.44,1.6c-2.4.53-4.05-.7-4.66-3.46l-1.68-7.66-2,.45,1.7,7.68c.71,3.26,2.78,5.12,5.56,5.12a6.67,6.67,0,0,0,1.5-.18C145.94,49,147.59,46.17,146.75,42.32Z"/><polygon class="cls-3" points="165.18 32.44 164.57 32.49 164.53 31.98 164.22 32.52 163.52 32.58 159.22 40.09 153.69 33.43 152.97 33.49 152.57 33.01 152.61 33.52 152.02 33.57 153.22 47.54 155.25 47.36 154.4 37.45 159.06 43.05 159.85 42.98 163.49 36.67 164.34 46.58 166.39 46.4 165.18 32.44"/><path class="cls-3" d="M194.2,47.13l-1.63-1.76a7.45,7.45,0,0,0,1.87-4.12.92.92,0,0,0,0-.29,6.94,6.94,0,0,0-6.17-7.8A6.82,6.82,0,0,0,183,34.77a7.37,7.37,0,0,0-2.45,4.78v0A7,7,0,0,0,191,46.65l1.68,1.87Zm-4.63-2a4.84,4.84,0,0,1-2.62.43,5.05,5.05,0,0,1-4.35-5.75v0a5,5,0,0,1,4.89-4.65,5.44,5.44,0,0,1,.57,0,5,5,0,0,1,4.33,5.75v0a5.58,5.58,0,0,1-1.22,2.93l-2.34-2.58-1.53,1.39Z"/><path class="cls-3" d="M211.06,45.72l1.86-7.59-2-.49-1.88,7.65c-.67,2.76-2.29,3.91-4.68,3.33a3.58,3.58,0,0,1-2.42-1.7,4.8,4.8,0,0,1-.23-3.47l1.87-7.61-2-.49L199.72,43a6.64,6.64,0,0,0,.46,5,5.66,5.66,0,0,0,3.7,2.59,6.77,6.77,0,0,0,1.64.21,5.18,5.18,0,0,0,2.85-.81A6.77,6.77,0,0,0,211.06,45.72Z"/><path class="cls-3" d="M214.74,53.39l2.92-2.81L224.07,53l.3,4,2.11.8L225.27,42.3l-.6-.23,0-.29-.21.2-.56-.21L212.67,52.61ZM219.25,49l4.2-4.08.45,5.85Z"/><polygon class="cls-3" points="239.45 62.25 232.71 58.77 238.23 48.09 236.41 47.15 229.97 59.6 238.53 64.03 239.45 62.25"/><rect class="cls-3" x="239.95" y="59.99" width="14.02" height="2.05" transform="translate(64.45 238.22) rotate(-58.03)"/><polygon class="cls-3" points="265.17 65.22 256.32 58.65 255.13 60.26 258.72 62.92 251.56 72.57 253.2 73.8 260.37 64.15 263.98 66.83 265.17 65.22"/><polygon class="cls-3" points="276.59 75.41 268.96 77.01 269.94 69.25 268.08 67.53 266.82 77.78 262.99 81.92 264.5 83.31 268.33 79.17 278.44 77.12 276.59 75.41"/><polygon class="cls-1" points="305.19 160.33 310.91 171.94 323.72 173.8 314.45 182.84 316.64 195.59 305.19 189.57 293.73 195.59 295.92 182.84 286.65 173.8 299.46 171.94 305.19 160.33"/><polygon class="cls-1" points="38.57 160.33 44.3 171.94 57.11 173.8 47.84 182.84 50.03 195.59 38.57 189.57 27.12 195.59 29.31 182.84 20.04 173.8 32.85 171.94 38.57 160.33"/><path d="M231,125.77a4.65,4.65,0,0,1-4.83,4.42H118.82a4.44,4.44,0,1,1,0-8.84H226.17A4.66,4.66,0,0,1,231,125.77ZM178.12,70.22a5.62,5.62,0,0,0-11.23,0,45.2,45.2,0,0,1,5.49-.35A47.43,47.43,0,0,1,178.12,70.22Zm43.74,47.22H123.14a49.51,49.51,0,0,1,98.72,0Zm-55-41.28a51.27,51.27,0,0,0-35.93,36.67h10.46S147.17,87.28,166.85,76.16Z"/><path d="M130.26,257.22h81.93a4.68,4.68,0,0,1,4.56,3.25h0a3.67,3.67,0,0,1,.18,1.1,4.41,4.41,0,0,1-4.76,4.35c-7.81-.84-24.6-5.36-31.29-3-3.84,1.33-10.76,6.21-22.25,6.21-21.39,0-29-5-30.82-8.47,0-.05,0-.1,0-.15A2.43,2.43,0,0,1,130.26,257.22Zm-2.19-19.61a216.34,216.34,0,0,1,25.43-2c7.89,0,7.79,1.62,9.66,6.29l49.26-1.72a4.58,4.58,0,0,1,4.76,4.36,4.2,4.2,0,0,1-.07.62h0a4.62,4.62,0,0,1-4.66,3.73l-49.26-1.72c-1.87,4.67-1.77,6.28-9.66,6.28a216.06,216.06,0,0,1-25.43-2v-1.09l27.86-.26v-2.29l-27.86-.57v-1.08l27.86-.5v-2.29l-27.86-.55v-1.19l27.86-.51v-2.28l-27.86-.2Z"/><path class="cls-4" d="M87.43,159.52a11.54,11.54,0,0,1-2.69,3.91,12.83,12.83,0,0,1-4.15,2.6,14.35,14.35,0,0,1-5.29.95H65.7V142.36h9.6a14.55,14.55,0,0,1,5.29.93,12.47,12.47,0,0,1,4.15,2.59,11.42,11.42,0,0,1,2.69,3.88,12.12,12.12,0,0,1,.95,4.84v.07A12.23,12.23,0,0,1,87.43,159.52Zm-4.71-4.85a8.07,8.07,0,0,0-.54-3,7.15,7.15,0,0,0-1.52-2.36,6.79,6.79,0,0,0-2.34-1.53,8.16,8.16,0,0,0-3-.54H71.12v14.84H75.3a8.36,8.36,0,0,0,3-.53,6.35,6.35,0,0,0,2.34-1.51,7.18,7.18,0,0,0,1.52-2.32,7.92,7.92,0,0,0,.54-3Z"/><path class="cls-4" d="M93.2,167V142.36h18.53v4.82H98.55v5h11.6V157H98.55v5.17h13.36V167Z"/><path class="cls-4" d="M116.76,167V142.36h5.42v19.73h12.27V167Z"/><path class="cls-4" d="M138.78,167V142.36h5.41V167Z"/><path class="cls-4" d="M170,164.83a11.78,11.78,0,0,1-2.23,1.39,11.46,11.46,0,0,1-2.65.88,16,16,0,0,1-3.24.3,12.68,12.68,0,0,1-5-1,12.1,12.1,0,0,1-6.64-6.71,12.85,12.85,0,0,1-1-5v-.07a12.85,12.85,0,0,1,3.58-9,12.34,12.34,0,0,1,4-2.74,13.1,13.1,0,0,1,5.2-1,16.12,16.12,0,0,1,3.15.28,13.74,13.74,0,0,1,2.58.77,11.21,11.21,0,0,1,2.15,1.2,13.63,13.63,0,0,1,1.83,1.55l-3.45,4a12.79,12.79,0,0,0-2.94-2,7.46,7.46,0,0,0-3.35-.74,6.83,6.83,0,0,0-2.87.6,6.91,6.91,0,0,0-2.27,1.65,7.77,7.77,0,0,0-1.47,2.45,8.07,8.07,0,0,0-.53,3v.07a8.29,8.29,0,0,0,.53,3,7.73,7.73,0,0,0,1.45,2.46,7,7,0,0,0,2.26,1.67,6.73,6.73,0,0,0,2.9.62,7.53,7.53,0,0,0,3.57-.78,13.72,13.72,0,0,0,2.9-2.11L172,163A17.66,17.66,0,0,1,170,164.83Z"/><path class="cls-4" d="M176.3,167V142.36h18.53v4.82H181.64v5h11.61V157H181.64v5.17H195V167Z"/><path class="cls-4" d="M217,163a6.61,6.61,0,0,1-1.85,2.39,8.25,8.25,0,0,1-2.84,1.48,12.24,12.24,0,0,1-3.65.51,16.22,16.22,0,0,1-5.52-1,14.44,14.44,0,0,1-4.92-3l3.2-3.83a16.21,16.21,0,0,0,3.46,2.18,9.28,9.28,0,0,0,3.89.81,4.74,4.74,0,0,0,2.62-.62,1.94,1.94,0,0,0,.93-1.7v-.08a2.27,2.27,0,0,0-.19-.93,2,2,0,0,0-.74-.75,7.84,7.84,0,0,0-1.52-.71c-.65-.23-1.49-.48-2.52-.73a33,33,0,0,1-3.39-1,9.61,9.61,0,0,1-2.57-1.39,5.6,5.6,0,0,1-1.64-2.06,7.11,7.11,0,0,1-.58-3.06v-.07a7.09,7.09,0,0,1,.63-3,6.85,6.85,0,0,1,1.76-2.34,7.86,7.86,0,0,1,2.71-1.51,10.68,10.68,0,0,1,3.48-.53,14.68,14.68,0,0,1,5,.81,14.23,14.23,0,0,1,4.17,2.32l-2.81,4.08a18.07,18.07,0,0,0-3.24-1.78,8.31,8.31,0,0,0-3.16-.65,3.84,3.84,0,0,0-2.38.62,1.89,1.89,0,0,0-.79,1.53V149a2.21,2.21,0,0,0,.23,1,2.07,2.07,0,0,0,.83.8,8.14,8.14,0,0,0,1.64.66c.69.21,1.57.46,2.63.74a26,26,0,0,1,3.33,1.11,9.25,9.25,0,0,1,2.47,1.48,5.59,5.59,0,0,1,1.51,2,6.86,6.86,0,0,1,.52,2.78v.07A7.64,7.64,0,0,1,217,163Z"/><path class="cls-4" d="M254.65,159.52a11.54,11.54,0,0,1-2.69,3.91,12.83,12.83,0,0,1-4.15,2.6,14.38,14.38,0,0,1-5.29.95h-9.6V142.36h9.6a14.59,14.59,0,0,1,5.29.93,12.47,12.47,0,0,1,4.15,2.59,11.42,11.42,0,0,1,2.69,3.88,12.29,12.29,0,0,1,.95,4.84v.07A12.41,12.41,0,0,1,254.65,159.52Zm-4.71-4.85a7.88,7.88,0,0,0-.55-3,7,7,0,0,0-1.51-2.36,6.79,6.79,0,0,0-2.34-1.53,8.16,8.16,0,0,0-3-.54h-4.19v14.84h4.19a8.36,8.36,0,0,0,3-.53,6.35,6.35,0,0,0,2.34-1.51,7,7,0,0,0,1.51-2.32,7.73,7.73,0,0,0,.55-3Z"/><path class="cls-4" d="M260.42,167V142.36H279v4.82H265.76v5h11.61V157H265.76v5.17h13.37V167Z"/><path class="cls-4" d="M65.66,214.94v-6.75l22.22-25.85H66.36v-7.79H99.3v6.75L77.09,207.15H99.3v7.79Z"/><path class="cls-4" d="M133,214.94V198.72H116.61v16.22h-8.89V174.55h8.89v16H133v-16h8.89v40.39Z"/><path class="cls-4" d="M191.09,202.85a21,21,0,0,1-4.47,6.63,20.74,20.74,0,0,1-6.81,4.5,22.19,22.19,0,0,1-8.63,1.65,21.92,21.92,0,0,1-8.59-1.65,21.1,21.1,0,0,1-6.78-4.44,19.61,19.61,0,0,1-4.44-6.58,20.64,20.64,0,0,1-1.59-8.1v-.12a20.34,20.34,0,0,1,1.62-8.1,20.66,20.66,0,0,1,11.27-11.14,23.45,23.45,0,0,1,17.23,0,21.5,21.5,0,0,1,6.77,4.44,19.89,19.89,0,0,1,4.45,6.58,20.86,20.86,0,0,1,1.58,8.11v.11A20.52,20.52,0,0,1,191.09,202.85Zm-7.68-8.11a13.36,13.36,0,0,0-.89-4.9,12.12,12.12,0,0,0-6.43-6.78,11.92,11.92,0,0,0-4.91-1,12.15,12.15,0,0,0-4.93,1,11.46,11.46,0,0,0-3.81,2.71,13.06,13.06,0,0,0-2.48,4,13.38,13.38,0,0,0-.89,4.88v.11a13.62,13.62,0,0,0,.89,4.91,12.25,12.25,0,0,0,2.54,4,12.54,12.54,0,0,0,3.87,2.74,11.81,11.81,0,0,0,4.93,1,12,12,0,0,0,4.9-1,11.11,11.11,0,0,0,3.84-2.71,12.76,12.76,0,0,0,2.48-4,13.12,13.12,0,0,0,.89-4.87Z"/><path class="cls-4" d="M233.92,205.36a15.12,15.12,0,0,1-3.54,5.68,14.55,14.55,0,0,1-5.6,3.4,22.55,22.55,0,0,1-7.33,1.13q-8.13,0-12.8-4.5T200,197.63V174.55h8.89V197.4q0,4.95,2.3,7.47a8.29,8.29,0,0,0,6.41,2.51A8.4,8.4,0,0,0,224,205q2.31-2.41,2.31-7.26V174.55h8.88v22.79A23.34,23.34,0,0,1,233.92,205.36Z"/><path class="cls-4" d="M268.74,214.94,260.09,202h-7v12.93h-8.89V174.55h18.46q7.21,0,11.22,3.52t4,9.81V188a12.62,12.62,0,0,1-2.39,8,13.85,13.85,0,0,1-6.26,4.53l9.87,14.43Zm.17-26.6a5.16,5.16,0,0,0-1.84-4.33,8.16,8.16,0,0,0-5.14-1.44h-8.82v11.6h9a7.39,7.39,0,0,0,5.05-1.56,5.29,5.29,0,0,0,1.75-4.16Z"/></g></svg>