<svg id="Calque_1" data-name="Calque 1" xmlns="http://www.w3.org/2000/svg" viewBox="0 0 67 67"><defs><style>.cls-1{fill:#e71d73;}.cls-2{fill:none;stroke:#fff;stroke-miterlimit:10;}.cls-3{fill:#fff;}.cls-4{fill:#1d1d1b;}</style></defs><g id="logo_max" data-name="logo max"><circle class="cls-1" cx="33.5" cy="33.5" r="33.53"/><circle class="cls-2" cx="33.48" cy="33.5" r="31.4"/><path class="cls-2" d="M55,17.07a27.12,27.12,0,0,1-6.4,39"/><path class="cls-2" d="M18.32,56a27.14,27.14,0,0,1-6.77-38.44"/><path class="cls-3" d="M65.66,33.51a32.44,32.44,0,0,0-1-8.12H54.08a22.23,22.23,0,0,0-41.41,0H2.33A32.44,32.44,0,0,0,3.06,44H13.82a22.24,22.24,0,0,0,39.11,0h11A32.18,32.18,0,0,0,65.66,33.51Z"/><path class="cls-3" d="M22.08,56.3a1.66,1.66,0,0,0-.74-.85,1.23,1.23,0,0,0-.78-.16.84.84,0,0,0-.59.39h0a.71.71,0,0,0-.06.66,1.79,1.79,0,0,0,.55.67c.54.49.5.66.4.84h0a.42.42,0,0,1-.32.21A.85.85,0,0,1,20,58a1.34,1.34,0,0,1-.63-.82l0-.14-.41.13,0,.13a1.79,1.79,0,0,0,.83,1,1.31,1.31,0,0,0,.66.19.84.84,0,0,0,.75-.43h0a.75.75,0,0,0,.06-.65,1.83,1.83,0,0,0-.55-.69c-.54-.48-.51-.65-.41-.83h0a.43.43,0,0,1,.29-.19.82.82,0,0,1,.49.11,1.3,1.3,0,0,1,.56.66l0,.13.39-.16Z"/><rect class="cls-3" x="21.38" y="57.87" width="3.15" height="0.42" transform="translate(-39.44 55.47) rotate(-66.04)"/><polygon class="cls-3" points="26.37 60.15 25.27 57.34 25.12 57.29 25.09 57.23 25.08 57.28 24.95 57.24 24.02 60.24 24.42 60.37 25.13 58.09 26.23 60.93 26.39 60.98 26.41 61.01 26.41 60.99 26.54 61.03 27.48 58.02 27.07 57.9 26.37 60.15"/><path class="cls-3" d="M28.71,59.87a1.29,1.29,0,0,1,.45-.8,1.11,1.11,0,0,1,.84-.23,1.2,1.2,0,0,1,.84.52l.09.11.34-.27-.09-.11a1.62,1.62,0,0,0-1.12-.66,1.57,1.57,0,0,0-1.77,1.38h0A1.6,1.6,0,0,0,28.56,61a1.47,1.47,0,0,0,1,.63,1.06,1.06,0,0,0,.25,0,1.68,1.68,0,0,0,1-.37l.11-.08-.26-.34-.11.09a1.21,1.21,0,0,1-1,.28,1.16,1.16,0,0,1-.95-1.36Z"/><polygon class="cls-3" points="32.23 61.83 34.56 61.87 34.56 61.46 32.66 61.43 32.68 60.46 34.38 60.49 34.38 60.08 32.69 60.05 32.7 59.1 34.58 59.13 34.59 58.72 32.28 58.68 32.23 61.83"/><path class="cls-3" d="M38.52,60.93l.63-.92c.39-.56.49-.87.42-1.23h0a.91.91,0,0,0-1.15-.66,1.2,1.2,0,0,0-.94.9l0,.13.39.14,0-.14a.81.81,0,0,1,.63-.63.52.52,0,0,1,.66.36c0,.19,0,.41-.34.9l-1,1.41.06.3L40.08,61,40,60.61Z"/><path class="cls-3" d="M43.28,58.29a1.8,1.8,0,0,0-.7-.94,1.18,1.18,0,0,0-1.09-.13,1.2,1.2,0,0,0-.75.8,1.89,1.89,0,0,0,.06,1.17h0a1.57,1.57,0,0,0,1.39,1.14,1.2,1.2,0,0,0,1.16-.88,2,2,0,0,0-.06-1.17Zm-.82,1.59c-.54.2-1.05-.28-1.25-.83h0c-.2-.56-.12-1.24.43-1.43a.59.59,0,0,1,.25,0,.8.8,0,0,1,.47.16,1.42,1.42,0,0,1,.53.72h0C43.09,59,43,59.68,42.46,59.88Z"/><polygon class="cls-3" points="44.08 56.13 43.53 56.76 43.84 57.03 44.18 56.65 45.37 59.03 45.74 58.84 44.33 56.01 44.08 56.13"/><polygon class="cls-3" points="45.85 55.14 45.36 55.82 45.69 56.06 45.99 55.64 47.38 57.92 47.74 57.7 46.09 54.99 45.85 55.14"/><path class="cls-3" d="M14.35,13.8a.93.93,0,0,0-1.41.1l-.75.71,1.92,2,.29-.28-.66-.7.43-.41a1.31,1.31,0,0,0,.42-.7.84.84,0,0,0-.24-.73Zm-.45,1.14-.43.41-.71-.74.45-.42a.89.89,0,0,1,.47-.26.44.44,0,0,1,.37.15h0a.43.43,0,0,1,.13.38A.93.93,0,0,1,13.9,14.94Z"/><path class="cls-3" d="M16.93,11.72h0a.8.8,0,0,0-.51-.32h0a1.13,1.13,0,0,0-.81.27l-.94.7,1.67,2.22.33-.25L16,13.49l.53-.4,1.29.36.41-.31-1.36-.37A.82.82,0,0,0,16.93,11.72Zm-1.16,1.46-.55-.74.6-.45c.19-.15.55-.34.78,0h0c.17.23.07.52-.25.77Z"/><polygon class="cls-3" points="20.5 11.33 19.07 12.17 18.66 11.48 19.94 10.73 19.74 10.39 18.46 11.13 18.07 10.46 19.48 9.63 19.27 9.29 17.52 10.32 18.92 12.72 20.7 11.67 20.5 11.33"/><polygon class="cls-3" points="22.71 7.71 22.67 7.62 22.65 7.74 22.52 7.79 22.18 9.47 20.73 8.56 20.59 8.62 20.49 8.55 20.53 8.65 20.42 8.69 21.52 11.24 21.89 11.08 21.11 9.28 22.34 10.04 22.48 9.97 22.77 8.56 23.55 10.37 23.92 10.21 22.82 7.66 22.71 7.71"/><rect class="cls-3" x="24.56" y="7.1" width="0.41" height="2.78" transform="translate(-1.41 7.9) rotate(-17.65)"/><path class="cls-3" d="M28.4,7.73l-.33-1.51-.4.08L28,7.83a.94.94,0,0,1-.06.68.71.71,0,0,1-.48.32c-.48.1-.81-.14-.93-.69l-.33-1.52-.4.09.34,1.52a1.13,1.13,0,0,0,1.1,1,1.77,1.77,0,0,0,.3,0A1.12,1.12,0,0,0,28.4,7.73Z"/><polygon class="cls-3" points="32.05 5.77 31.93 5.78 31.92 5.68 31.86 5.79 31.72 5.8 30.87 7.29 29.78 5.97 29.63 5.98 29.55 5.89 29.56 5.99 29.45 6 29.68 8.76 30.09 8.73 29.92 6.77 30.84 7.87 31 7.86 31.72 6.61 31.89 8.57 32.29 8.54 32.05 5.77"/><path class="cls-3" d="M37.8,8.68l-.33-.35a1.48,1.48,0,0,0,.37-.81.13.13,0,0,0,0-.06,1.36,1.36,0,0,0-1.22-1.54,1.31,1.31,0,0,0-1.05.31,1.49,1.49,0,0,0-.49.95h0a1.38,1.38,0,0,0,1.22,1.57,1.47,1.47,0,0,0,.85-.17l.33.37Zm-.92-.4a.93.93,0,0,1-.52.09,1,1,0,0,1-.86-1.14h0a1,1,0,0,1,1-.92h.11a1,1,0,0,1,.86,1.14h0A1.16,1.16,0,0,1,37.2,8l-.46-.51-.31.28Z"/><path class="cls-3" d="M41.13,8.4l.37-1.5-.39-.1-.37,1.52c-.14.54-.46.77-.93.65a.67.67,0,0,1-.48-.33,1,1,0,0,1,0-.69l.37-1.5-.39-.1-.37,1.51a1.33,1.33,0,0,0,.09,1,1.11,1.11,0,0,0,.73.52,1.24,1.24,0,0,0,.33,0,1,1,0,0,0,.56-.16A1.33,1.33,0,0,0,41.13,8.4Z"/><path class="cls-3" d="M41.86,9.92l.58-.56,1.27.48.06.8.42.16L44,7.72l-.12,0V7.62l0,0-.11,0L41.45,9.77Zm.89-.86.84-.81.09,1.16Z"/><polygon class="cls-3" points="46.75 11.67 45.42 10.98 46.51 8.87 46.15 8.69 44.88 11.15 46.57 12.03 46.75 11.67"/><rect class="cls-3" x="46.85" y="11.23" width="2.78" height="0.41" transform="translate(13 46.3) rotate(-58.03)"/><polygon class="cls-3" points="51.84 12.26 50.09 10.96 49.86 11.28 50.57 11.81 49.15 13.72 49.48 13.96 50.9 12.05 51.61 12.58 51.84 12.26"/><polygon class="cls-3" points="54.11 14.28 52.59 14.6 52.79 13.06 52.42 12.72 52.17 14.75 51.41 15.57 51.71 15.84 52.47 15.02 54.47 14.62 54.11 14.28"/><polygon class="cls-1" points="59.77 31.09 60.9 33.39 63.44 33.76 61.6 35.55 62.03 38.07 59.77 36.88 57.5 38.07 57.93 35.55 56.1 33.76 58.63 33.39 59.77 31.09"/><polygon class="cls-1" points="6.99 31.09 8.12 33.39 10.66 33.76 8.82 35.55 9.26 38.07 6.99 36.88 4.72 38.07 5.15 35.55 3.32 33.76 5.85 33.39 6.99 31.09"/><path d="M45.08,24.25a.92.92,0,0,1-.95.87H22.87a.88.88,0,1,1,0-1.75H44.13A.92.92,0,0,1,45.08,24.25Zm-10.47-11a1.11,1.11,0,0,0-2.22,0,7.88,7.88,0,0,1,1.09-.07A10.55,10.55,0,0,1,34.61,13.25Zm8.66,9.35H23.73a9.8,9.8,0,0,1,19.54,0ZM32.38,14.43a10.13,10.13,0,0,0-7.11,7.26h2.07S28.48,16.63,32.38,14.43Z"/><path d="M25.14,50.27H41.36a.93.93,0,0,1,.9.65h0a.78.78,0,0,1,0,.21.87.87,0,0,1-.94.86c-1.55-.16-4.87-1.06-6.2-.6a10,10,0,0,1-4.4,1.23c-4.24,0-5.75-1-6.1-1.68v0A.49.49,0,0,1,25.14,50.27Zm-.44-3.88a43.46,43.46,0,0,1,5-.4c1.56,0,1.54.32,1.91,1.25l9.75-.34a.91.91,0,0,1,1,.86.5.5,0,0,1,0,.12h0a.92.92,0,0,1-.93.74l-9.75-.34c-.37.92-.35,1.24-1.91,1.24a42.92,42.92,0,0,1-5-.39v-.22l5.52,0v-.45L24.7,48.3v-.22l5.52-.1v-.45l-5.52-.11v-.23l5.52-.1v-.46l-5.52,0Z"/><path class="cls-4" d="M16.66,30.93a2.21,2.21,0,0,1-.53.77,2.67,2.67,0,0,1-.82.52,3,3,0,0,1-1.05.19h-1.9V27.53h1.9a2.76,2.76,0,0,1,1.05.19,2.47,2.47,0,0,1,.82.51,2.3,2.3,0,0,1,.53.77,2.49,2.49,0,0,1,.19,1h0A2.57,2.57,0,0,1,16.66,30.93Zm-.93-1a1.63,1.63,0,0,0-.11-.59,1.35,1.35,0,0,0-.3-.47,1.31,1.31,0,0,0-.46-.3,1.64,1.64,0,0,0-.6-.11h-.83v2.94h.83a1.64,1.64,0,0,0,.6-.11,1.29,1.29,0,0,0,.46-.29,1.41,1.41,0,0,0,.3-.46,1.64,1.64,0,0,0,.11-.6Z"/><path class="cls-4" d="M17.8,32.41V27.53h3.67v1H18.86v1h2.3v.95h-2.3v1H21.5v1Z"/><path class="cls-4" d="M22.47,32.41V27.53h1.07v3.91H26v1Z"/><path class="cls-4" d="M26.82,32.41V27.53H27.9v4.88Z"/><path class="cls-4" d="M33,32a2.6,2.6,0,0,1-.45.28,2.64,2.64,0,0,1-.52.17,3.16,3.16,0,0,1-.64.06,2.54,2.54,0,0,1-1-.19,2.41,2.41,0,0,1-.79-.54,2.36,2.36,0,0,1-.52-.79,2.53,2.53,0,0,1-.19-1h0a2.48,2.48,0,0,1,.19-1,2.51,2.51,0,0,1,.52-.8,2.36,2.36,0,0,1,.8-.54,2.63,2.63,0,0,1,1-.2,3,3,0,0,1,.62.06,1.9,1.9,0,0,1,.51.15,1.64,1.64,0,0,1,.43.24,2.6,2.6,0,0,1,.36.3l-.68.79a3,3,0,0,0-.58-.41,1.6,1.6,0,0,0-.67-.14,1.31,1.31,0,0,0-.56.12,1.23,1.23,0,0,0-.45.32,1.44,1.44,0,0,0-.3.49A1.63,1.63,0,0,0,30,30h0a1.63,1.63,0,0,0,.1.59,1.59,1.59,0,0,0,.29.49,1.35,1.35,0,0,0,.45.33,1.32,1.32,0,0,0,.57.12,1.52,1.52,0,0,0,.71-.15,2.6,2.6,0,0,0,.57-.42l.69.69A4.26,4.26,0,0,1,33,32Z"/><path class="cls-4" d="M34.25,32.41V27.53h3.67v1H35.31v1h2.3v.95h-2.3v1H38v1Z"/><path class="cls-4" d="M42.31,31.61a1.23,1.23,0,0,1-.37.47,1.67,1.67,0,0,1-.56.3,2.72,2.72,0,0,1-.72.1,3.24,3.24,0,0,1-1.1-.2,2.85,2.85,0,0,1-1-.58l.63-.76a3.42,3.42,0,0,0,.69.43,1.77,1.77,0,0,0,.77.16,1,1,0,0,0,.52-.12.39.39,0,0,0,.18-.34h0a.38.38,0,0,0,0-.19.39.39,0,0,0-.14-.15l-.3-.14-.5-.14a4.82,4.82,0,0,1-.67-.21,1.76,1.76,0,0,1-.51-.27,1.2,1.2,0,0,1-.33-.41,1.5,1.5,0,0,1-.11-.6v0a1.46,1.46,0,0,1,.12-.6,1.31,1.31,0,0,1,.35-.46,1.57,1.57,0,0,1,.54-.3,2.17,2.17,0,0,1,.69-.11,3.1,3.1,0,0,1,1,.16,2.93,2.93,0,0,1,.83.46l-.56.81a3.71,3.71,0,0,0-.64-.35,1.58,1.58,0,0,0-.63-.13.78.78,0,0,0-.47.12.37.37,0,0,0-.15.31h0a.4.4,0,0,0,0,.2.49.49,0,0,0,.16.16,1.33,1.33,0,0,0,.33.13l.52.15a4.25,4.25,0,0,1,.66.22A1.92,1.92,0,0,1,42,30a1.27,1.27,0,0,1,.3.4,1.32,1.32,0,0,1,.1.55v0A1.47,1.47,0,0,1,42.31,31.61Z"/><path class="cls-4" d="M49.76,30.93a2.08,2.08,0,0,1-.53.77,2.55,2.55,0,0,1-.82.52,3,3,0,0,1-1,.19h-1.9V27.53h1.9a2.76,2.76,0,0,1,1,.19,2.37,2.37,0,0,1,.82.51,2.17,2.17,0,0,1,.53.77A2.32,2.32,0,0,1,50,30h0A2.38,2.38,0,0,1,49.76,30.93Zm-.93-1a1.63,1.63,0,0,0-.11-.59,1.35,1.35,0,0,0-.3-.47,1.23,1.23,0,0,0-.46-.3,1.64,1.64,0,0,0-.6-.11h-.83v2.94h.83a1.64,1.64,0,0,0,.6-.11,1.21,1.21,0,0,0,.46-.29,1.41,1.41,0,0,0,.3-.46,1.64,1.64,0,0,0,.11-.6Z"/><path class="cls-4" d="M50.9,32.41V27.53h3.67v1H52v1h2.3v.95H52v1h2.65v1Z"/><path class="cls-4" d="M12.35,41.9V40.56l4.4-5.11H12.49V33.91H19v1.33l-4.4,5.12H19V41.9Z"/><path class="cls-4" d="M25.68,41.9V38.69H22.44V41.9H20.68v-8h1.76v3.16h3.24V33.91h1.76v8Z"/><path class="cls-4" d="M37.18,39.51a4.06,4.06,0,0,1-.89,1.31,3.88,3.88,0,0,1-1.34.89,4.34,4.34,0,0,1-1.71.33,4.29,4.29,0,0,1-1.7-.33,4,4,0,0,1-1.34-.88,3.88,3.88,0,0,1-.88-1.3,4.08,4.08,0,0,1-.32-1.6v0a4.15,4.15,0,0,1,2.55-3.81,4.6,4.6,0,0,1,1.71-.32,4.44,4.44,0,0,1,1.7.32,4.32,4.32,0,0,1,1.35.88,4.08,4.08,0,0,1,.88,1.31,4.22,4.22,0,0,1,.31,1.6v0A4.13,4.13,0,0,1,37.18,39.51ZM35.66,37.9a2.65,2.65,0,0,0-.18-1,2.3,2.3,0,0,0-.5-.8,2.33,2.33,0,0,0-.77-.54,2.4,2.4,0,0,0-1-.2,2.59,2.59,0,0,0-1,.19,2.25,2.25,0,0,0-.75.54,2.5,2.5,0,0,0-.49.8,2.56,2.56,0,0,0-.18,1v0a2.58,2.58,0,0,0,.18,1,2.26,2.26,0,0,0,.5.8,2.51,2.51,0,0,0,.77.55,2.34,2.34,0,0,0,1,.2,2.37,2.37,0,0,0,1-.2,2.31,2.31,0,0,0,.76-.53,2.43,2.43,0,0,0,.49-.8,2.56,2.56,0,0,0,.18-1Z"/><path class="cls-4" d="M45.66,40a3,3,0,0,1-.7,1.13,2.85,2.85,0,0,1-1.11.67A4.41,4.41,0,0,1,42.4,42a3.54,3.54,0,0,1-2.54-.89,3.59,3.59,0,0,1-.92-2.67V33.91H40.7v4.52a2.15,2.15,0,0,0,.45,1.48,1.91,1.91,0,0,0,2.54,0,2,2,0,0,0,.46-1.43V33.91h1.76v4.51A4.63,4.63,0,0,1,45.66,40Z"/><path class="cls-4" d="M52.55,41.9l-1.71-2.56H49.46V41.9H47.7v-8h3.65a3.24,3.24,0,0,1,2.22.69,2.45,2.45,0,0,1,.8,1.94v0a2.5,2.5,0,0,1-.48,1.58,2.67,2.67,0,0,1-1.23.9l2,2.85Zm0-5.26a1,1,0,0,0-.37-.86,1.6,1.6,0,0,0-1-.29H49.46v2.3h1.78a1.44,1.44,0,0,0,1-.31,1,1,0,0,0,.35-.82Z"/></g></svg>