<svg id="Calque_1" data-name="Calque 1" xmlns="http://www.w3.org/2000/svg" viewBox="0 0 80 80"><defs><style>.cls-1{fill:#e71d73;}.cls-2{fill:#fff;}</style></defs><g id="icon-lunchbox"><circle class="cls-1" cx="40" cy="40" r="40"/><path class="cls-2" d="M63.78,57.46a2.05,2.05,0,0,1-2.2,1.39q-21.63,0-43.27,0a1.84,1.84,0,0,1-2-1.33,2,2,0,0,1-.05-.55q0-10.37,0-20.75A4.41,4.41,0,0,1,17.46,33c1.53-1.54,3.12-3,4.71-4.48a4.56,4.56,0,0,1,3.28-1.17h6.22l.31,0V24.7a1.73,1.73,0,0,1-1.54-1.49A1.75,1.75,0,0,1,32,21.16H47.68a1.78,1.78,0,0,1,1.89,2.05c-.1.76-.61,1.26-1.57,1.51v2.65h.5c2,0,4,0,6,0a5.2,5.2,0,0,1,3.84,1.56c1,.95,2,1.93,3,2.84a6.75,6.75,0,0,1,2.5,3.79Zm-44-2.19H60.22V36H52.64c0,1,0,1.88,0,2.81A1.7,1.7,0,0,1,51,40.45a1.67,1.67,0,0,1-1.8-1.4c-.1-.81-.06-1.63-.08-2.45,0-.19,0-.39,0-.57H30.88c0,.43,0,.83,0,1.23A12.82,12.82,0,0,1,30.81,39a1.73,1.73,0,0,1-3.44-.19c0-.72,0-1.45,0-2.18V36H19.77ZM48.05,33.78c-.65-.92-1.23-1.78-1.85-2.62a.77.77,0,0,0-.54-.26c-3.77,0-7.54,0-11.32,0a.69.69,0,0,0-.47.19c-.64.86-1.26,1.74-1.93,2.69Zm-2.31-6.44V24.72H34.25v2.62ZM29.65,30.89c-1.45,0-2.79,0-4.14,0a1.73,1.73,0,0,0-1.29.51c-.61.6-1.23,1.18-1.84,1.76l-.59.57.09.06c1.87,0,3.74,0,5.61,0a.38.38,0,0,0,.31-.14C28.41,32.77,29,31.87,29.65,30.89Zm28.5,2.91,0-.11c-.87-.82-1.73-1.67-2.63-2.47a1.68,1.68,0,0,0-.94-.32c-.75,0-1.51,0-2.27,0h-2c.65,1,1.23,1.88,1.85,2.76.07.11.29.14.45.15,1.08,0,2.16,0,3.24,0Z"/></g></svg>