<svg id="Calque_1" data-name="Calque 1" xmlns="http://www.w3.org/2000/svg" viewBox="0 0 80 80"><defs><style>.cls-1{fill:#fff;}</style></defs><g id="panier"><path class="cls-1" d="M77.08,36.65A7,7,0,0,1,75.25,40a6.2,6.2,0,0,1-4.2,1.66c-.41,0-.58.12-.65.55q-1.92,11.8-3.87,23.59c-.13.78-.21,1.57-.39,2.35A5.73,5.73,0,0,1,60.2,73Q40,73,19.8,73c-3.16,0-5.59-1.86-6.17-5.91-.75-5.22-1.69-10.4-2.54-15.61-.5-3-1-6-1.47-9-.09-.57-.29-.67-.81-.7A5.94,5.94,0,0,1,3,34.61a5.8,5.8,0,0,1,5.52-4.75c1.65-.07,3.31,0,5,0-.63,6,3.93,9.3,7.76,9.29a7.67,7.67,0,0,0,6.1-2.79,7.82,7.82,0,0,0,1.74-6.47H50.85a7.86,7.86,0,0,0,3.06,7.7,7.51,7.51,0,0,0,5.51,1.52c3.91-.41,7.64-3.78,7-9.28,1.54,0,3.08,0,4.61,0A5.88,5.88,0,0,1,77,34.52a1.15,1.15,0,0,0,.12.25ZM21.71,46.22c0,.34,0,.68.09,1l.81,5.28c.53,3.55,1,7.1,1.61,10.64a3.47,3.47,0,0,0,4.43,2.78c1.88-.51,2.82-2.28,2.47-4.44-.54-3.38-1-6.76-1.54-10.14-.29-1.93-.55-3.86-.88-5.78a3.52,3.52,0,0,0-7,.65Zm36.62,0a8.89,8.89,0,0,0-.19-1.13,3.51,3.51,0,0,0-6.83.45q-1.26,8.1-2.46,16.2a3.55,3.55,0,1,0,7,1.13c.5-3.67,1.11-7.32,1.66-11C57.8,50,58.06,48.13,58.33,46.23ZM43.51,54.32h0c0-2.84.06-5.69,0-8.54a3.51,3.51,0,0,0-7,.58c0,3.26,0,6.51,0,9.77,0,2.27,0,4.53.05,6.8a3.49,3.49,0,0,0,7-.29C43.55,59.87,43.51,57.09,43.51,54.32Z"/><path class="cls-1" d="M64.19,31.23a5.57,5.57,0,1,1-11.13-.36,1,1,0,0,1,0-.35c.56-1.08.06-1.92-.51-2.83Q47.8,20.07,43.1,12.4a3.39,3.39,0,0,1,.21-4.33,3.2,3.2,0,0,1,4.93.23c1.49,2.16,2.83,4.43,4.21,6.66,2.11,3.39,4.21,6.8,6.33,10.18a1.52,1.52,0,0,0,.88.63A5.46,5.46,0,0,1,64.19,31.23Z"/><path class="cls-1" d="M15.81,31.69c0-3.23,1.88-5.4,4.5-5.92a1.58,1.58,0,0,0,.93-.65q5-8.06,10-16.16A3.37,3.37,0,0,1,34.77,7.1a3.23,3.23,0,0,1,2.52,4.56,17.05,17.05,0,0,1-1.13,1.93q-4.63,7.5-9.26,15a1.56,1.56,0,0,0-.18,1.11A5.25,5.25,0,0,1,25,35.44a5.19,5.19,0,0,1-5.93.82A5.24,5.24,0,0,1,15.81,31.69Z"/></g></svg>