<svg id="Calque_1" data-name="Calque 1" xmlns="http://www.w3.org/2000/svg" viewBox="0 0 80 80"><defs><style>.cls-1{fill:#e71d73;}.cls-2{fill:#fff;}</style></defs><g id="icon-petitdej"><circle class="cls-1" cx="40" cy="40" r="40"/><path class="cls-2" d="M30.59,27.34A1.31,1.31,0,0,1,29.22,26a1.33,1.33,0,0,1,1.33-1.41,1.36,1.36,0,1,1,0,2.71Z"/><path class="cls-2" d="M29.21,42.83a1.36,1.36,0,0,1,2.72,0,1.36,1.36,0,0,1-1.38,1.37A1.34,1.34,0,0,1,29.21,42.83Z"/><path class="cls-2" d="M65.35,31.19v1.88a.85.85,0,0,0-.09.22,7.23,7.23,0,0,1-5,5.77c-.43.16-.57.32-.57.77,0,6.69,0,13.37,0,20.05a4.5,4.5,0,0,1-2.51,4.36,5.1,5.1,0,0,1-2.4.46H34.15c-.64,0-1.29,0-1.93-.06a4.32,4.32,0,0,1-3.88-3.79c-.09-1.66-.07-3.33-.09-5,0-.2,0-.39,0-.63-1.11,0-2.16,0-3.21,0a4.84,4.84,0,0,1-2.25-.46,4.48,4.48,0,0,1-2.53-4.31c0-2.22,0-4.45,0-6.68q0-6.75,0-13.51c0-.37-.09-.55-.46-.65a6.41,6.41,0,0,1-2.46-1.33,7,7,0,0,1-2.5-7.21,7.24,7.24,0,0,1,7.49-5.77q13.66,0,27.32,0a9.67,9.67,0,0,1,2.34.28,7.19,7.19,0,0,1,5.32,6.67,23.83,23.83,0,0,1-.16,2.51h.75a7.26,7.26,0,0,1,6.8,4.36A15.27,15.27,0,0,1,65.35,31.19ZM36,18.72H22.39a5.7,5.7,0,0,0-1.37.15,3.86,3.86,0,0,0,.49,7.59c.27,0,.56,0,.83.1a1.8,1.8,0,0,1,1.35,1.88c0,7.27,0,14.55,0,21.82,0,1.2.32,1.52,1.53,1.52H46.89c1.13,0,1.44-.31,1.44-1.45V29.11c0-2.05.3-2.36,2.31-2.66a3.63,3.63,0,0,0,3.16-2.87,3.71,3.71,0,0,0-1.22-3.88,4.06,4.06,0,0,0-2.87-1ZM31.69,55.23v4.61c0,1.1.34,1.44,1.45,1.44H54.86c1.12,0,1.48-.36,1.48-1.48V41.45c0-1.26,0-2.51,0-3.77A1.65,1.65,0,0,1,57.87,36c.33,0,.66,0,1-.12A3.88,3.88,0,0,0,61.91,32a3.75,3.75,0,0,0-3.3-3.72c-1.22-.14-2.47-.06-3.7-.08a.52.52,0,0,0-.27.1,7.67,7.67,0,0,1-2.87,1.43v20.7a4.49,4.49,0,0,1-2.53,4.31,5.08,5.08,0,0,1-2.3.47H31.69Z"/><path class="cls-2" d="M41.77,27.34A1.36,1.36,0,1,1,43.17,26,1.36,1.36,0,0,1,41.77,27.34Z"/><path class="cls-2" d="M37.54,34.41a1.32,1.32,0,0,1-1.39,1.35,1.35,1.35,0,0,1,0-2.7A1.32,1.32,0,0,1,37.54,34.41Z"/><path class="cls-2" d="M41.78,41.47a1.36,1.36,0,1,1-1.36,1.34A1.38,1.38,0,0,1,41.78,41.47Z"/></g></svg>