<svg id="Calque_1" data-name="Calque 1" xmlns="http://www.w3.org/2000/svg" viewBox="0 0 80 80"><defs><style>.cls-1{fill:#e71d73;}.cls-2{fill:#fff;}</style></defs><g id="icon-plateau"><circle class="cls-1" cx="40" cy="40" r="40"/><path class="cls-2" d="M62.79,20.6v.8A1.65,1.65,0,0,1,61,22.47c-.58,0-1.16,0-1.74,0H58.09v4.21h1.76c1.22,0,1.77.56,1.77,1.77V58.67c0,1.22-.54,1.77-1.76,1.77H20.16c-1.25,0-1.78-.55-1.78-1.8V28.47c0-1.24.55-1.78,1.8-1.79h1.73V22.47h-.45c-.95,0-1.9,0-2.85,0a1.43,1.43,0,0,1-.15-2.85,5.74,5.74,0,0,1,.71,0q20.84,0,41.66,0A1.9,1.9,0,0,1,62.79,20.6Zm-4.1,9H21.33v27.9H58.69Zm-3.56-7.13H24.88v4.15H55.13Z"/><path class="cls-2" d="M37.24,40.43c.61.6,1.2,1.2,1.82,1.78a.51.51,0,0,0,.41.1,3.08,3.08,0,0,1,2.05-.12.38.38,0,0,0,.3-.09l1-.93a10.35,10.35,0,0,1-.63-.86,4.11,4.11,0,0,1,.41-4.91,10.37,10.37,0,0,1,5.75-3.71,5.64,5.64,0,0,1,3.78.23,3.4,3.4,0,0,1,2,2.93,8.76,8.76,0,0,1-2.56,6.94,9.55,9.55,0,0,1-2,1.77,4,4,0,0,1-4.71-.46l-.22-.17-1.22,1.26.27.29c2.3,2.28,4.59,4.55,6.88,6.84a2.84,2.84,0,0,1,.6,3.57,2.88,2.88,0,0,1-4.34.89,6,6,0,0,1-.53-.48l-6-6a2.21,2.21,0,0,1-.25.43c-1.84,1.86-3.68,3.7-5.53,5.55a2.91,2.91,0,0,1-4.4-3.82,5.23,5.23,0,0,1,.39-.42l6.58-6.58a3,3,0,0,1,.35-.27l-1.93-1.92a11.65,11.65,0,0,1-1.8.72,3.41,3.41,0,0,1-3.29-1c-1.42-1.38-2.8-2.78-4.19-4.18a1.23,1.23,0,0,1,0-1.79,1.21,1.21,0,0,1,1.78.07l4,4a1.25,1.25,0,0,0,1.73.26c-.11-.12-.21-.24-.32-.35-1.54-1.54-3.08-3.09-4.63-4.62a1.33,1.33,0,0,1-.47-1.06,1.16,1.16,0,0,1,.76-1.06,1.19,1.19,0,0,1,1.38.3L34,37.19l1.41,1.42a1,1,0,0,0,.1-1.32,3.56,3.56,0,0,0-.39-.48l-3.91-3.9a1.28,1.28,0,0,1-.44-1.11,1.16,1.16,0,0,1,.81-1,1.22,1.22,0,0,1,1.34.35c1.37,1.37,2.76,2.73,4.11,4.13A4.43,4.43,0,0,1,38,36.67a3.42,3.42,0,0,1-.52,3.47C37.37,40.23,37.32,40.32,37.24,40.43ZM50,34h-.4a1.7,1.7,0,0,0-.22,0,7.93,7.93,0,0,0-5,3.1,1.61,1.61,0,0,0,.06,2.12c.65.7,1.32,1.37,2,2a1.63,1.63,0,0,0,2.1.08,8,8,0,0,0,3-4.4,7.37,7.37,0,0,0,.2-1.41C51.78,34.43,51.22,33.93,50,34ZM40.24,44.63c-.15.12-.37.22-.38.33a.81.81,0,0,0,.16.59l8.14,8.15c.22.22.45.38.73.11s.14-.52-.09-.75l-8.12-8.12A4,4,0,0,0,40.24,44.63ZM38,47.07l-.14.13-5.69,5.69c-.06.06-.17.13-.17.2a.93.93,0,0,0,.1.57c.08.1.36,0,.54,0s.13-.11.19-.18c1.87-1.86,3.73-3.73,5.6-5.6a2.36,2.36,0,0,0,.2-.23Z"/></g></svg>